<svg width="168" height="25" viewBox="0 0 168 25" fill="none" xmlns="http://www.w3.org/2000/svg">
<path d="M9.336 24.352C8.44 24.352 7.52267 24.2773 6.584 24.128C5.66667 24 4.78133 23.808 3.928 23.552C3.096 23.296 2.34933 22.976 1.688 22.592C1.21867 22.336 0.888 22.0053 0.696 21.6C0.504 21.1733 0.429333 20.7467 0.472 20.32C0.536 19.8933 0.696 19.52 0.952 19.2C1.22933 18.8587 1.57067 18.6453 1.976 18.56C2.40267 18.4533 2.872 18.528 3.384 18.784C4.25867 19.2747 5.208 19.6373 6.232 19.872C7.27733 20.1067 8.312 20.224 9.336 20.224C10.8933 20.224 12.0027 19.9893 12.664 19.52C13.3253 19.0293 13.656 18.4213 13.656 17.696C13.656 17.0773 13.4213 16.5867 12.952 16.224C12.4827 15.8613 11.6613 15.552 10.488 15.296L6.872 14.528C4.824 14.1013 3.29867 13.376 2.296 12.352C1.31467 11.3067 0.824 9.94133 0.824 8.256C0.824 7.18933 1.048 6.21867 1.496 5.344C1.944 4.46933 2.57333 3.712 3.384 3.072C4.19467 2.432 5.15467 1.94133 6.264 1.6C7.39467 1.25867 8.632 1.088 9.976 1.088C11.1707 1.088 12.344 1.23733 13.496 1.536C14.648 1.81333 15.6613 2.22933 16.536 2.784C16.9627 3.04 17.2507 3.37067 17.4 3.776C17.5707 4.16 17.624 4.55467 17.56 4.96C17.5173 5.344 17.3573 5.68533 17.08 5.984C16.824 6.28267 16.4933 6.47467 16.088 6.56C15.6827 6.64533 15.192 6.54933 14.616 6.272C13.912 5.90933 13.1653 5.64267 12.376 5.472C11.5867 5.30133 10.776 5.216 9.944 5.216C9.048 5.216 8.28 5.33333 7.64 5.568C7.02133 5.80267 6.54133 6.13333 6.2 6.56C5.88 6.98667 5.72 7.47733 5.72 8.032C5.72 8.65067 5.944 9.152 6.392 9.536C6.84 9.92 7.61867 10.2293 8.728 10.464L12.344 11.232C14.4347 11.68 15.992 12.4053 17.016 13.408C18.04 14.3893 18.552 15.6907 18.552 17.312C18.552 18.3787 18.3387 19.3493 17.912 20.224C17.4853 21.0773 16.8667 21.8133 16.056 22.432C15.2453 23.0507 14.2747 23.5307 13.144 23.872C12.0133 24.192 10.744 24.352 9.336 24.352ZM29.004 24.352C27.2973 24.352 25.804 24.0213 24.524 23.36C23.2653 22.6773 22.2947 21.7173 21.612 20.48C20.9293 19.2427 20.588 17.7813 20.588 16.096C20.588 14.8373 20.78 13.7067 21.164 12.704C21.548 11.7013 22.1027 10.848 22.828 10.144C23.5747 9.44 24.4707 8.90667 25.516 8.544C26.5613 8.16 27.724 7.968 29.004 7.968C29.6653 7.968 30.3693 8.05333 31.116 8.224C31.8627 8.37333 32.5987 8.64 33.324 9.024C33.7507 9.216 34.0387 9.49333 34.188 9.856C34.3587 10.1973 34.4227 10.56 34.38 10.944C34.3373 11.3067 34.1987 11.6373 33.964 11.936C33.7507 12.2133 33.4733 12.4053 33.132 12.512C32.7907 12.5973 32.4067 12.5333 31.98 12.32C31.5747 12.0853 31.148 11.9147 30.7 11.808C30.2733 11.7013 29.868 11.648 29.484 11.648C28.844 11.648 28.2787 11.7547 27.788 11.968C27.2973 12.16 26.8813 12.448 26.54 12.832C26.22 13.1947 25.964 13.6533 25.772 14.208C25.6013 14.7627 25.516 15.4027 25.516 16.128C25.516 17.536 25.8573 18.6453 26.54 19.456C27.244 20.2453 28.2253 20.64 29.484 20.64C29.868 20.64 30.2733 20.5973 30.7 20.512C31.1267 20.4053 31.5533 20.2347 31.98 20C32.4067 19.7867 32.7907 19.7333 33.132 19.84C33.4733 19.9467 33.74 20.1493 33.932 20.448C34.1453 20.7253 34.2627 21.056 34.284 21.44C34.3267 21.8027 34.2627 22.1653 34.092 22.528C33.9427 22.8693 33.6653 23.136 33.26 23.328C32.5347 23.6907 31.8093 23.9467 31.084 24.096C30.3587 24.2667 29.6653 24.352 29.004 24.352ZM39.0693 24.288C38.2799 24.288 37.6719 24.0747 37.2453 23.648C36.8399 23.2213 36.6373 22.6133 36.6373 21.824V3.616C36.6373 2.80533 36.8399 2.19733 37.2453 1.792C37.6719 1.36533 38.2799 1.152 39.0693 1.152C39.8373 1.152 40.4239 1.36533 40.8293 1.792C41.2559 2.19733 41.4693 2.80533 41.4693 3.616V11.232H41.0213C41.5119 10.1867 42.2373 9.38667 43.1973 8.832C44.1786 8.256 45.2879 7.968 46.5253 7.968C47.7839 7.968 48.8186 8.21333 49.6293 8.704C50.4399 9.17333 51.0479 9.89867 51.4533 10.88C51.8586 11.84 52.0613 13.0667 52.0613 14.56V21.824C52.0613 22.6133 51.8479 23.2213 51.4213 23.648C51.0159 24.0747 50.4186 24.288 49.6293 24.288C48.8613 24.288 48.2639 24.0747 47.8373 23.648C47.4319 23.2213 47.2293 22.6133 47.2293 21.824V14.784C47.2293 13.696 47.0266 12.9173 46.6213 12.448C46.2373 11.9573 45.6399 11.712 44.8293 11.712C43.8053 11.712 42.9839 12.032 42.3653 12.672C41.7679 13.312 41.4693 14.1653 41.4693 15.232V21.824C41.4693 23.4667 40.6693 24.288 39.0693 24.288ZM99.02 24.352C97.1213 24.352 95.7027 23.8293 94.764 22.784C93.8253 21.7173 93.356 20.1387 93.356 18.048V3.616C93.356 2.80533 93.5587 2.19733 93.964 1.792C94.3907 1.36533 94.9987 1.152 95.788 1.152C96.556 1.152 97.1427 1.36533 97.548 1.792C97.9747 2.19733 98.188 2.80533 98.188 3.616V17.856C98.188 18.7307 98.3693 19.3813 98.732 19.808C99.116 20.2133 99.6173 20.416 100.236 20.416C100.407 20.416 100.567 20.4053 100.716 20.384C100.865 20.3627 101.025 20.352 101.196 20.352C101.537 20.3093 101.772 20.416 101.9 20.672C102.049 20.9067 102.124 21.3867 102.124 22.112C102.124 22.752 101.996 23.2427 101.74 23.584C101.484 23.904 101.089 24.1173 100.556 24.224C100.343 24.2453 100.097 24.2667 99.82 24.288C99.5427 24.3307 99.276 24.352 99.02 24.352ZM109.324 24.352C108.172 24.352 107.138 24.128 106.22 23.68C105.303 23.232 104.588 22.624 104.076 21.856C103.564 21.088 103.308 20.224 103.308 19.264C103.308 18.112 103.607 17.2053 104.204 16.544C104.802 15.8613 105.772 15.3813 107.116 15.104C108.46 14.8053 110.242 14.656 112.46 14.656H114.156V17.152H112.492C111.404 17.152 110.519 17.216 109.836 17.344C109.175 17.4507 108.695 17.6427 108.396 17.92C108.119 18.1973 107.98 18.5813 107.98 19.072C107.98 19.6693 108.183 20.16 108.588 20.544C109.015 20.928 109.623 21.12 110.412 21.12C111.031 21.12 111.575 20.9813 112.044 20.704C112.535 20.4053 112.919 20.0107 113.196 19.52C113.474 19.008 113.612 18.432 113.612 17.792V14.112C113.612 13.1733 113.399 12.512 112.972 12.128C112.546 11.7227 111.82 11.52 110.796 11.52C110.22 11.52 109.591 11.5947 108.908 11.744C108.247 11.872 107.511 12.096 106.7 12.416C106.231 12.6293 105.815 12.6827 105.452 12.576C105.09 12.448 104.812 12.2347 104.62 11.936C104.428 11.616 104.332 11.2747 104.332 10.912C104.332 10.528 104.439 10.1653 104.652 9.824C104.866 9.46133 105.218 9.19467 105.708 9.024C106.711 8.61867 107.65 8.34133 108.524 8.192C109.42 8.04267 110.242 7.968 110.988 7.968C112.631 7.968 113.975 8.21333 115.02 8.704C116.087 9.17333 116.887 9.90933 117.42 10.912C117.954 11.8933 118.22 13.1627 118.22 14.72V21.824C118.22 22.6133 118.028 23.2213 117.644 23.648C117.26 24.0747 116.706 24.288 115.98 24.288C115.255 24.288 114.69 24.0747 114.284 23.648C113.9 23.2213 113.708 22.6133 113.708 21.824V20.64L113.932 20.832C113.804 21.5573 113.527 22.1867 113.1 22.72C112.695 23.232 112.172 23.6373 111.532 23.936C110.892 24.2133 110.156 24.352 109.324 24.352ZM124.321 24.288C123.51 24.288 122.891 24.0747 122.465 23.648C122.038 23.2213 121.825 22.6133 121.825 21.824V10.464C121.825 9.67467 122.027 9.07733 122.433 8.672C122.859 8.24533 123.446 8.032 124.193 8.032C124.961 8.032 125.547 8.24533 125.953 8.672C126.358 9.07733 126.561 9.67467 126.561 10.464V12.128H126.241C126.497 10.848 127.062 9.856 127.937 9.152C128.811 8.448 129.942 8.05333 131.329 7.968C131.862 7.92533 132.267 8.064 132.545 8.384C132.843 8.68267 133.003 9.184 133.025 9.888C133.067 10.5493 132.929 11.072 132.609 11.456C132.31 11.84 131.798 12.0747 131.073 12.16L130.337 12.224C129.121 12.3307 128.214 12.6827 127.617 13.28C127.041 13.8773 126.753 14.7413 126.753 15.872V21.824C126.753 22.6133 126.539 23.2213 126.113 23.648C125.707 24.0747 125.11 24.288 124.321 24.288Z" fill="black"/>
<path d="M63.2205 24.352C61.5352 24.352 60.0632 24.0213 58.8045 23.36C57.5672 22.6987 56.6072 21.7493 55.9245 20.512C55.2418 19.2747 54.9005 17.8133 54.9005 16.128C54.9005 14.8693 55.0925 13.7387 55.4765 12.736C55.8605 11.7333 56.4152 10.88 57.1405 10.176C57.8872 9.45067 58.7725 8.90667 59.7965 8.544C60.8205 8.16 61.9618 7.968 63.2205 7.968C64.9058 7.968 66.3672 8.29867 67.6045 8.96C68.8632 9.62133 69.8338 10.56 70.5165 11.776C71.2205 12.992 71.5725 14.4427 71.5725 16.128C71.5725 17.408 71.3698 18.5493 70.9645 19.552C70.5805 20.5547 70.0258 21.4187 69.3005 22.144C68.5752 22.8693 67.6898 23.424 66.6445 23.808C65.6205 24.1707 64.4792 24.352 63.2205 24.352ZM63.2205 20.736C63.9245 20.736 64.5325 20.5653 65.0445 20.224C65.5565 19.8827 65.9618 19.3813 66.2605 18.72C66.5592 18.0373 66.7085 17.1733 66.7085 16.128C66.7085 14.5707 66.3885 13.4293 65.7485 12.704C65.1085 11.9573 64.2658 11.584 63.2205 11.584C62.5378 11.584 61.9298 11.744 61.3965 12.064C60.8845 12.384 60.4792 12.8853 60.1805 13.568C59.9032 14.2293 59.7645 15.0827 59.7645 16.128C59.7645 17.6853 60.0845 18.848 60.7245 19.616C61.3645 20.3627 62.1965 20.736 63.2205 20.736Z" fill="url(#paint0_linear_283_45)"/>
<path d="M82.0642 24.352C80.3789 24.352 78.9069 24.0213 77.6483 23.36C76.4109 22.6987 75.4509 21.7493 74.7682 20.512C74.0856 19.2747 73.7443 17.8133 73.7443 16.128C73.7443 14.8693 73.9363 13.7387 74.3203 12.736C74.7043 11.7333 75.2589 10.88 75.9843 10.176C76.7309 9.45067 77.6163 8.90667 78.6403 8.544C79.6643 8.16 80.8056 7.968 82.0642 7.968C83.7496 7.968 85.2109 8.29867 86.4483 8.96C87.7069 9.62133 88.6776 10.56 89.3603 11.776C90.0643 12.992 90.4163 14.4427 90.4163 16.128C90.4163 17.408 90.2136 18.5493 89.8083 19.552C89.4243 20.5547 88.8696 21.4187 88.1443 22.144C87.4189 22.8693 86.5336 23.424 85.4883 23.808C84.4643 24.1707 83.3229 24.352 82.0642 24.352ZM82.0642 20.736C82.7683 20.736 83.3763 20.5653 83.8883 20.224C84.4003 19.8827 84.8056 19.3813 85.1043 18.72C85.4029 18.0373 85.5523 17.1733 85.5523 16.128C85.5523 14.5707 85.2323 13.4293 84.5923 12.704C83.9523 11.9573 83.1096 11.584 82.0642 11.584C81.3816 11.584 80.7736 11.744 80.2403 12.064C79.7283 12.384 79.3229 12.8853 79.0243 13.568C78.7469 14.2293 78.6083 15.0827 78.6083 16.128C78.6083 17.6853 78.9283 18.848 79.5683 19.616C80.2083 20.3627 81.0403 20.736 82.0642 20.736Z" fill="url(#paint1_linear_283_45)"/>
<path d="M136.598 24.16C135.745 24.16 135.062 23.904 134.55 23.392C134.06 22.88 133.814 22.2187 133.814 21.408C133.814 20.6187 134.06 19.9787 134.55 19.488C135.062 18.976 135.745 18.72 136.598 18.72C137.452 18.72 138.113 18.976 138.582 19.488C139.073 19.9787 139.318 20.6187 139.318 21.408C139.318 22.2187 139.073 22.88 138.582 23.392C138.113 23.904 137.452 24.16 136.598 24.16ZM145.007 24.256C144.217 24.256 143.609 24.032 143.183 23.584C142.777 23.1147 142.575 22.464 142.575 21.632V10.688C142.575 9.83467 142.777 9.184 143.183 8.736C143.609 8.26667 144.217 8.032 145.007 8.032C145.775 8.032 146.361 8.26667 146.767 8.736C147.193 9.184 147.407 9.83467 147.407 10.688V21.632C147.407 22.464 147.204 23.1147 146.799 23.584C146.393 24.032 145.796 24.256 145.007 24.256ZM145.007 5.408C144.111 5.408 143.417 5.20533 142.927 4.8C142.457 4.37333 142.223 3.776 142.223 3.008C142.223 2.21867 142.457 1.62133 142.927 1.216C143.417 0.789332 144.111 0.575998 145.007 0.575998C145.903 0.575998 146.585 0.789332 147.055 1.216C147.524 1.62133 147.759 2.21867 147.759 3.008C147.759 3.776 147.524 4.37333 147.055 4.8C146.585 5.20533 145.903 5.408 145.007 5.408ZM158.689 24.352C157.004 24.352 155.532 24.0213 154.273 23.36C153.036 22.6987 152.076 21.7493 151.393 20.512C150.711 19.2747 150.369 17.8133 150.369 16.128C150.369 14.8693 150.561 13.7387 150.945 12.736C151.329 11.7333 151.884 10.88 152.609 10.176C153.356 9.45067 154.241 8.90667 155.265 8.544C156.289 8.16 157.431 7.968 158.689 7.968C160.375 7.968 161.836 8.29867 163.073 8.96C164.332 9.62133 165.303 10.56 165.985 11.776C166.689 12.992 167.041 14.4427 167.041 16.128C167.041 17.408 166.839 18.5493 166.433 19.552C166.049 20.5547 165.495 21.4187 164.769 22.144C164.044 22.8693 163.159 23.424 162.113 23.808C161.089 24.1707 159.948 24.352 158.689 24.352ZM158.689 20.736C159.393 20.736 160.001 20.5653 160.513 20.224C161.025 19.8827 161.431 19.3813 161.729 18.72C162.028 18.0373 162.177 17.1733 162.177 16.128C162.177 14.5707 161.857 13.4293 161.217 12.704C160.577 11.9573 159.735 11.584 158.689 11.584C158.007 11.584 157.399 11.744 156.865 12.064C156.353 12.384 155.948 12.8853 155.649 13.568C155.372 14.2293 155.233 15.0827 155.233 16.128C155.233 17.6853 155.553 18.848 156.193 19.616C156.833 20.3627 157.665 20.736 158.689 20.736Z" fill="#1E90FF"/>
<defs>
<linearGradient id="paint0_linear_283_45" x1="50.7857" y1="16.9672" x2="72.5714" y2="16.9672" gradientUnits="userSpaceOnUse">
<stop stop-color="#1E90FF"/>
<stop offset="1" stop-color="#990099"/>
</linearGradient>
<linearGradient id="paint1_linear_283_45" x1="73.2857" y1="17.6885" x2="95.7857" y2="17.6885" gradientUnits="userSpaceOnUse">
<stop stop-color="#990099"/>
<stop offset="1" stop-color="#1E90FF"/>
</linearGradient>
</defs>
</svg>
