<svg width="22" height="6" viewBox="0 0 22 6" fill="none" xmlns="http://www.w3.org/2000/svg">
<path id="Arrow 1" d="M0.0276766 1.96717C-0.0262782 2.99669 0.764573 3.87502 1.79409 3.92897C2.82361 3.98293 3.70194 3.19208 3.75589 2.16256C3.80985 1.13304 3.019 0.254712 1.98948 0.200757C0.95996 0.146802 0.0816314 0.937653 0.0276766 1.96717ZM20.9315 0.933568C20.9092 0.741558 20.7355 0.603979 20.5435 0.626276L17.4145 0.989622C17.2225 1.01192 17.0849 1.18565 17.1072 1.37766C17.1295 1.56967 17.3033 1.70725 17.4953 1.68495L20.2766 1.36198L20.5996 4.14329C20.6219 4.33529 20.7956 4.47287 20.9876 4.45058C21.1796 4.42828 21.3172 4.25455 21.2949 4.06254L20.9315 0.933568ZM1.66341 2.3301C6.60595 6.58575 15.6585 7.75724 20.8583 1.19123L20.3095 0.756651C15.4329 6.91466 6.86299 5.88334 2.12016 1.79964L1.66341 2.3301Z" fill="url(#paint0_linear_283_46)"/>
<defs>
<linearGradient id="paint0_linear_283_46" x1="1.73833" y1="3.20662" x2="21.6194" y2="1.92397" gradientUnits="userSpaceOnUse">
<stop stop-color="#1E90FF"/>
<stop offset="0.479167" stop-color="#990099"/>
<stop offset="1" stop-color="#1E90FF"/>
</linearGradient>
</defs>
</svg>
